<?xml version="1.0" standalone="no"?>
<!DOCTYPE svg PUBLIC "-//W3C//DTD SVG 20010904//EN"
 "http://www.w3.org/TR/2001/REC-SVG-20010904/DTD/svg10.dtd">
<svg version="1.0" xmlns="http://www.w3.org/2000/svg"
 width="16.000000pt" height="16.000000pt" viewBox="0 0 16.000000 16.000000"
 preserveAspectRatio="xMidYMid meet">
<metadata>
Created by potrace 1.11, written by Peter Selinger 2001-2013
</metadata>
<g transform="translate(0.000000,16.000000) scale(0.002000,-0.002000)"
fill="#000000" stroke="none">
<path d="M5335 7979 c-431 -40 -866 -210 -1235 -482 -120 -89 -319 -283 -420
-408 -186 -232 -344 -555 -429 -879 -25 -96 -61 -286 -61 -325 0 -56 -8 -59
-106 -31 -372 103 -798 114 -1187 32 -346 -73 -730 -258 -995 -479 -103 -86
-283 -274 -356 -370 -181 -242 -335 -557 -411 -841 -61 -230 -70 -308 -70
-621 0 -237 3 -308 18 -390 59 -324 174 -606 368 -902 105 -159 206 -281 358
-433 251 -250 472 -407 816 -580 380 -192 608 -263 1175 -369 326 -60 516 -90
1130 -175 443 -62 619 -87 670 -96 30 -5 129 -21 220 -36 589 -93 1139 -230
1562 -391 117 -44 128 -46 228 -47 98 -1 109 1 172 31 130 61 208 165 233 311
8 42 19 147 25 232 20 287 42 457 90 700 71 358 164 717 365 1405 48 165 91
314 95 330 4 17 35 127 68 245 223 795 336 1445 336 1935 0 218 -11 337 -45
515 -66 338 -181 635 -369 952 -176 295 -471 607 -748 789 -460 304 -954 428
-1497 378z"/>
</g>
</svg>
